<svg
  version="1.1"
  id="Layer_1"
  xmlns="http://www.w3.org/2000/svg"
  xmlns:xlink="http://www.w3.org/1999/xlink"
  x="0px"
  y="0px"
  width="48px"
  heigh="48px"
  viewBox="0 0 400 400"
  enable-background="new 0 0 400 400"
  xml:space="preserve"
>
  <path
    fill="#FFFFFF"
    opacity="1.000000"
    stroke="none"
    d="
M268.000000,401.000000 
	C178.694427,401.000000 89.888847,401.000000 1.041634,401.000000 
	C1.041634,267.736084 1.041634,134.472168 1.041634,1.104123 
	C134.222183,1.104123 267.444489,1.104123 400.833374,1.104123 
	C400.833374,134.333160 400.833374,267.666565 400.833374,401.000000 
	C356.805573,401.000000 312.652802,401.000000 268.000000,401.000000 
M249.737915,72.772247 
	C223.317230,62.577389 196.235107,61.103493 168.813339,67.447708 
	C91.561974,85.320366 45.461689,169.288849 71.679062,244.003738 
	C91.044014,299.190460 140.568268,335.411377 199.068283,336.562622 
	C240.038513,337.368866 281.021729,337.517731 321.999329,337.942474 
	C323.561768,337.958679 325.126099,337.789307 328.113190,337.630951 
	C314.047729,326.416199 301.041870,316.046295 288.653046,306.168396 
	C292.225708,302.211121 295.394348,298.567932 298.703217,295.056885 
	C331.592834,260.157684 343.874573,218.727280 334.188599,172.142502 
	C324.309235,124.627701 295.340668,91.726906 249.737915,72.772247 
z"
  />
  <path
    fill="#8B8B8B"
    opacity="1.000000"
    stroke="none"
    d="
M250.110367,72.878021 
	C295.340668,91.726906 324.309235,124.627701 334.188599,172.142502 
	C343.874573,218.727280 331.592834,260.157684 298.703217,295.056885 
	C295.394348,298.567932 292.225708,302.211121 288.653046,306.168396 
	C301.041870,316.046295 314.047729,326.416199 328.113190,337.630951 
	C325.126099,337.789307 323.561768,337.958679 321.999329,337.942474 
	C281.021729,337.517731 240.038513,337.368866 199.068283,336.562622 
	C140.568268,335.411377 91.044014,299.190460 71.679062,244.003738 
	C45.461689,169.288849 91.561974,85.320366 168.813339,67.447708 
	C196.235107,61.103493 223.317230,62.577389 250.110367,72.878021 
M284.645508,151.877914 
	C262.498840,113.612518 217.349731,95.159439 175.358368,106.785446 
	C127.044762,120.161873 97.187325,168.798538 105.641975,216.725204 
	C114.987144,269.699890 167.856232,308.419617 224.672577,293.747650 
	C287.227783,277.593628 315.982544,209.281326 284.645508,151.877914 
z"
  />
  <path
    fill="#FEFDFD"
    opacity="1.000000"
    stroke="none"
    d="
M284.836182,152.191010 
	C315.982544,209.281326 287.227783,277.593628 224.672577,293.747650 
	C167.856232,308.419617 114.987144,269.699890 105.641975,216.725204 
	C97.187325,168.798538 127.044762,120.161873 175.358368,106.785446 
	C217.349731,95.159439 262.498840,113.612518 284.836182,152.191010 
M159.993317,253.997482 
	C159.993317,253.997482 159.973999,254.054916 160.205521,254.519318 
	C160.512360,254.658127 160.819214,254.796936 161.605530,255.109604 
	C161.733521,255.221512 161.861511,255.333420 162.180801,255.751495 
	C162.354935,255.932938 162.566315,256.042786 162.919922,256.046173 
	C162.919922,256.046173 162.940552,256.154846 163.190262,256.572937 
	C163.422943,256.830750 163.712921,256.958832 163.997543,256.993378 
	C163.997543,256.993378 164.044601,256.938171 164.122040,257.669037 
	C165.159714,258.064148 166.197388,258.459259 167.631638,258.946564 
	C167.631638,258.946564 167.954712,259.194397 168.106201,259.862183 
	C169.112808,260.214172 170.119415,260.566162 171.565369,260.988037 
	C171.565369,260.988037 171.952621,261.207001 172.076202,261.900055 
	C174.383850,263.256042 177.021286,264.258972 178.930099,266.041962 
	C182.837082,269.691315 186.812759,268.644043 191.740112,266.979919 
	C192.489227,267.083618 193.238342,267.187317 194.170197,267.568848 
	C194.170197,267.568848 194.628128,267.665833 194.628128,267.665833 
	C194.628128,267.665833 195.001389,267.366425 195.913666,267.271088 
	C199.286209,267.307739 202.658737,267.344391 206.517807,267.768799 
	C207.343643,267.836365 208.169479,267.903961 209.423599,267.805939 
	C209.698822,267.644135 209.893524,267.414124 210.702240,266.963318 
	C211.411636,266.937836 212.121033,266.912384 213.373077,267.046021 
	C213.558243,267.078735 213.743423,267.111450 214.441986,267.604126 
	C216.255386,267.118744 218.063293,266.246582 219.883224,266.220764 
	C225.302795,266.143738 229.486038,263.840759 232.983948,259.961212 
	C232.983948,259.961212 232.869034,259.860901 233.683365,259.969147 
	C235.071274,259.647583 236.811066,259.748383 237.788513,258.934082 
	C243.112488,254.498718 248.443756,250.033905 253.347504,245.152283 
	C255.151642,243.356323 255.793335,240.392670 257.000000,238.000000 
	C257.000000,238.000000 256.958099,237.969269 257.646118,237.903748 
	C260.431488,234.761261 264.517151,232.261200 263.062775,226.425247 
	C263.363800,225.946411 263.664825,225.467590 264.622223,224.676895 
	C265.570007,221.155457 269.515778,218.344864 267.091187,213.297714 
	C267.411499,211.862000 267.731781,210.426300 268.620209,208.481522 
	C268.709564,200.466461 269.381866,192.395981 268.627563,184.461121 
	C268.281433,180.820709 265.133270,177.446686 263.027405,173.530899 
	C263.027405,173.530899 262.963074,173.056305 263.018005,172.299774 
	C262.352722,171.197067 261.687439,170.094360 260.996338,168.998703 
	C260.996338,168.998703 261.008698,168.974426 260.913086,168.569077 
	C260.794006,168.302017 260.599091,168.113342 260.053955,167.584259 
	C260.013947,167.422241 259.973969,167.260223 259.992584,166.387863 
	C259.362183,165.579681 258.731781,164.771515 257.643036,163.609482 
	C257.424286,163.082809 257.205536,162.556137 257.021820,161.246002 
	C257.169434,158.452209 256.100861,156.791626 252.536636,156.610535 
	C251.314743,155.158524 250.092865,153.706512 248.721664,151.688171 
	C248.393524,151.503845 248.065369,151.319504 247.336227,150.987518 
	C247.074677,150.840424 246.897079,150.624344 246.864120,149.600113 
	C243.424271,145.430069 240.223297,140.899017 233.450943,140.937897 
	C233.450943,140.937897 233.058655,140.644302 232.877777,140.016647 
	C232.115814,139.755234 231.353836,139.493805 230.040039,139.137329 
	C229.716339,138.956314 229.392654,138.775284 228.870651,137.953506 
	C226.113586,137.051254 223.356522,136.149002 220.256516,135.261795 
	C220.256516,135.261795 219.956970,135.094162 220.022537,134.386978 
	C219.790527,133.610687 219.505814,132.147461 219.334366,132.160614 
	C216.536011,132.375336 213.751999,132.776733 210.299271,133.161789 
	C209.863220,133.085144 209.427185,133.008499 208.578140,132.450867 
	C207.399887,132.519318 206.221634,132.587769 204.306152,132.729446 
	C201.853363,132.703979 199.400589,132.678497 196.297012,132.217026 
	C191.606979,131.852295 186.886078,131.332245 182.921066,134.965256 
	C182.921066,134.965256 182.827896,134.904358 182.047623,134.900848 
	C180.353043,135.540939 178.658463,136.181046 176.574432,137.036087 
	C176.574432,137.036087 176.131332,137.075256 175.507355,137.015945 
	C175.005325,137.325256 174.503311,137.634583 173.686615,138.138397 
	C173.686615,138.138397 173.317474,138.162460 172.769241,138.176529 
	C172.512589,138.420135 172.255936,138.663757 171.666626,139.118286 
	C171.666626,139.118286 171.275467,139.164673 170.598663,139.083191 
	C170.107025,139.462906 169.615387,139.842636 169.068604,140.109604 
	C169.068604,140.109604 169.179886,140.167648 168.666885,140.200745 
	C168.444687,140.446991 168.222504,140.693237 167.742783,141.165543 
	C167.742783,141.165543 167.405991,141.228806 166.719971,141.127304 
	C166.134384,141.685272 165.548782,142.243225 164.652069,143.060425 
	C164.652069,143.060425 164.257828,143.152969 163.491455,143.051804 
	C162.339447,144.049744 161.187454,145.047699 159.998474,146.002060 
	C159.998474,146.002060 160.041870,146.037842 159.292496,145.999542 
	C157.914886,147.423218 156.537262,148.846909 154.791260,150.813004 
	C143.769852,161.222763 136.838409,173.924301 134.372177,188.832718 
	C132.472183,200.318176 133.673523,211.716125 137.013199,223.478806 
	C137.312195,223.985794 137.611206,224.492767 138.125122,225.326950 
	C138.125122,225.326950 138.181366,225.714371 138.054352,226.553131 
	C138.967819,232.621521 141.958344,237.421478 147.338577,241.422470 
	C147.944839,242.190765 148.551086,242.959061 149.105301,244.451721 
	C150.079453,245.294281 151.053604,246.136826 152.001083,247.001389 
	C152.001083,247.001389 152.017563,246.971802 152.177170,247.450897 
	C152.450317,247.633667 152.723465,247.816437 153.000000,248.000000 
	C153.000000,248.000000 153.000137,248.003616 153.048615,248.702545 
	C154.089584,249.435898 155.130569,250.169250 156.722839,251.159027 
	C157.476227,251.835175 158.229599,252.511337 159.173706,253.595612 
	C159.369614,253.847214 159.625870,253.992172 159.993317,253.997482 
z"
  />
  <path
    fill="#E88D39"
    opacity="1.000000"
    stroke="none"
    d="
M171.952621,261.207001 
	C171.952621,261.207001 171.565369,260.988037 171.172989,260.688110 
	C169.838638,259.990234 168.896683,259.592316 167.954712,259.194397 
	C167.954712,259.194397 167.631638,258.946564 167.253052,258.632568 
	C165.931168,257.858429 164.987885,257.398285 164.044601,256.938171 
	C164.044601,256.938171 163.997543,256.993378 163.929321,256.740448 
	C163.554245,256.376617 163.247406,256.265747 162.940552,256.154846 
	C162.940552,256.154846 162.919922,256.046173 162.814270,255.865417 
	C162.532547,255.413574 162.292847,255.333801 161.989502,255.445328 
	C161.861511,255.333420 161.733521,255.221512 161.255157,254.784485 
	C160.594513,254.324554 160.284256,254.189728 159.973999,254.054916 
	C159.973999,254.054916 159.993317,253.997482 159.901749,253.784485 
	C159.612701,253.274902 159.336975,253.146912 158.982986,253.187500 
	C158.229599,252.511337 157.476227,251.835175 156.345978,250.723877 
	C154.979462,249.527023 153.989807,248.765320 153.000137,248.003616 
	C153.000137,248.003616 153.000000,248.000000 152.937469,247.747559 
	C152.589142,247.320679 152.303345,247.146240 152.017563,246.971802 
	C152.017563,246.971802 152.001083,247.001389 151.949371,246.674057 
	C150.984207,245.473602 150.070786,244.600479 149.157349,243.727356 
	C148.551086,242.959061 147.944839,242.190765 147.073624,240.883423 
	C143.932892,235.467728 141.057129,230.591049 138.181366,225.714371 
	C138.181366,225.714371 138.125122,225.326950 138.037109,224.861526 
	C137.663040,223.883377 137.377014,223.370667 137.090973,222.857941 
	C133.673523,211.716125 132.472183,200.318176 134.372177,188.832718 
	C136.838409,173.924301 143.769852,161.222763 155.286072,150.432281 
	C157.201202,148.713654 158.621536,147.375748 160.041870,146.037842 
	C160.041870,146.037842 159.998474,146.002060 160.337601,145.969391 
	C161.870438,145.008804 163.064133,144.080887 164.257828,143.152969 
	C164.257828,143.152969 164.652069,143.060425 165.116821,142.929626 
	C166.189713,142.275497 166.797852,141.752151 167.405991,141.228806 
	C167.405991,141.228806 167.742783,141.165543 168.126923,141.031876 
	C168.733994,140.654694 168.956940,140.411163 169.179886,140.167648 
	C169.179886,140.167648 169.068604,140.109604 169.411469,140.156586 
	C170.261383,139.857285 170.768433,139.510986 171.275467,139.164673 
	C171.275467,139.164673 171.666626,139.118286 172.103043,138.998962 
	C172.798798,138.640579 173.058136,138.401520 173.317474,138.162460 
	C173.317474,138.162460 173.686615,138.138397 174.148422,138.063934 
	C175.117264,137.684738 175.624298,137.380005 176.131332,137.075256 
	C176.131332,137.075256 176.574432,137.036087 177.130585,136.950668 
	C179.400452,136.211624 181.114166,135.557983 182.827896,134.904358 
	C182.827896,134.904358 182.921066,134.965256 183.357086,134.968231 
	C188.177994,134.198486 192.562897,133.425766 196.947800,132.653046 
	C199.400589,132.678497 201.853363,132.703979 205.050781,132.833450 
	C206.860657,132.935577 207.925903,132.933716 208.991135,132.931854 
	C209.427185,133.008499 209.863220,133.085144 210.921539,133.379028 
	C214.348206,134.095581 217.152588,134.594879 219.956970,135.094162 
	C219.956970,135.094162 220.256516,135.261795 220.669724,135.518265 
	C223.744934,136.714584 226.406952,137.654419 229.068954,138.594269 
	C229.392654,138.775284 229.716339,138.956314 230.471802,139.447464 
	C231.621933,140.053162 232.340286,140.348740 233.058655,140.644302 
	C233.058655,140.644302 233.450943,140.937897 233.869644,141.275238 
	C238.460037,144.521469 242.631729,147.430359 246.803421,150.339249 
	C246.897079,150.624344 247.074677,150.840424 247.649353,151.316132 
	C248.265320,151.847992 248.568146,152.051254 248.870987,152.254501 
	C250.092865,153.706512 251.314743,155.158524 252.873810,157.112091 
	C254.469589,159.085587 255.728195,160.557526 256.986786,162.029465 
	C257.205536,162.556137 257.424286,163.082809 257.888611,164.101044 
	C258.734100,165.427811 259.334045,166.263016 259.933960,167.098206 
	C259.973969,167.260223 260.013947,167.422241 260.178040,168.019897 
	C260.443237,168.756943 260.678772,168.929901 261.008698,168.974426 
	C261.008698,168.974426 260.996338,168.998703 261.029938,169.327026 
	C261.696716,170.788986 262.329895,171.922653 262.963074,173.056305 
	C262.963074,173.056305 263.027405,173.530899 263.138855,174.116638 
	C267.722443,185.729660 268.628662,197.256302 268.052063,208.990601 
	C267.731781,210.426300 267.411499,211.862000 266.891907,213.949448 
	C265.783691,218.063705 264.874756,221.526230 263.965820,224.988770 
	C263.664825,225.467590 263.363800,225.946411 262.778839,226.926300 
	C260.649292,230.941315 258.803680,234.455292 256.958099,237.969269 
	C256.958099,237.969269 257.000000,238.000000 256.691589,238.142059 
	C250.116760,247.189133 241.784302,253.842575 232.869034,259.860901 
	C232.869034,259.860901 232.983948,259.961212 232.570007,259.908234 
	C226.107864,261.998993 220.059647,264.142761 213.772491,266.285583 
	C213.195175,266.363983 212.960800,266.564728 212.830429,266.886932 
	C212.121033,266.912384 211.411636,266.937836 210.105392,266.975555 
	C209.340225,267.022125 209.171921,267.056427 208.626923,267.041351 
	C207.510590,267.121674 206.770935,267.251343 206.031281,267.381042 
	C202.658737,267.344391 199.286209,267.307739 195.210114,267.218201 
	C194.333511,267.207245 194.160477,267.249146 193.987457,267.291016 
	C193.238342,267.187317 192.489227,267.083618 191.063187,266.798737 
	C184.241714,264.814056 178.097168,263.010529 171.952621,261.207001 
z"
  />
  <path
    fill="#FEEFD7"
    opacity="1.000000"
    stroke="none"
    d="
M233.276199,259.915039 
	C241.784302,253.842575 250.116760,247.189133 256.674194,238.122864 
	C255.793335,240.392670 255.151642,243.356323 253.347504,245.152283 
	C248.443756,250.033905 243.112488,254.498718 237.788513,258.934082 
	C236.811066,259.748383 235.071274,259.647583 233.276199,259.915039 
z"
  />
  <path
    fill="#FEEFD7"
    opacity="1.000000"
    stroke="none"
    d="
M268.336151,208.736053 
	C268.628662,197.256302 267.722443,185.729660 263.253052,174.327118 
	C265.133270,177.446686 268.281433,180.820709 268.627563,184.461121 
	C269.381866,192.395981 268.709564,200.466461 268.336151,208.736053 
z"
  />
  <path
    fill="#FDEBD3"
    opacity="1.000000"
    stroke="none"
    d="
M172.014404,261.553528 
	C178.097168,263.010529 184.241714,264.814056 190.684937,266.831665 
	C186.812759,268.644043 182.837082,269.691315 178.930099,266.041962 
	C177.021286,264.258972 174.383850,263.256042 172.014404,261.553528 
z"
  />
  <path
    fill="#FEEFD7"
    opacity="1.000000"
    stroke="none"
    d="
M214.011444,266.286530 
	C220.059647,264.142761 226.107864,261.998993 232.529510,259.843597 
	C229.486038,263.840759 225.302795,266.143738 219.883224,266.220764 
	C218.063293,266.246582 216.255386,267.118744 214.212921,267.159607 
	C213.983871,266.715118 214.011444,266.286530 214.011444,266.286530 
z"
  />
  <path
    fill="#FDEBD3"
    opacity="1.000000"
    stroke="none"
    d="
M138.117859,226.133759 
	C141.057129,230.591049 143.932892,235.467728 146.852615,240.688171 
	C141.958344,237.421478 138.967819,232.621521 138.117859,226.133759 
z"
  />
  <path
    fill="#FEEFD7"
    opacity="1.000000"
    stroke="none"
    d="
M246.833771,149.969681 
	C242.631729,147.430359 238.460037,144.521469 234.109070,141.327118 
	C240.223297,140.899017 243.424271,145.430069 246.833771,149.969681 
z"
  />
  <path
    fill="#FEEFD7"
    opacity="1.000000"
    stroke="none"
    d="
M257.302124,237.936508 
	C258.803680,234.455292 260.649292,230.941315 262.762207,227.217468 
	C264.517151,232.261200 260.431488,234.761261 257.302124,237.936508 
z"
  />
  <path
    fill="#FEEFD7"
    opacity="1.000000"
    stroke="none"
    d="
M219.989746,134.740570 
	C217.152588,134.594879 214.348206,134.095581 211.254272,133.366150 
	C213.751999,132.776733 216.536011,132.375336 219.334366,132.160614 
	C219.505814,132.147461 219.790527,133.610687 219.989746,134.740570 
z"
  />
  <path
    fill="#FEEFD7"
    opacity="1.000000"
    stroke="none"
    d="
M196.622406,132.435028 
	C192.562897,133.425766 188.177994,134.198486 183.381958,134.918457 
	C186.886078,131.332245 191.606979,131.852295 196.622406,132.435028 
z"
  />
  <path
    fill="#FEEFD7"
    opacity="1.000000"
    stroke="none"
    d="
M264.294006,224.832825 
	C264.874756,221.526230 265.783691,218.063705 266.918884,214.318893 
	C269.515778,218.344864 265.570007,221.155457 264.294006,224.832825 
z"
  />
  <path
    fill="#FEEFD7"
    opacity="1.000000"
    stroke="none"
    d="
M228.969803,138.273895 
	C226.406952,137.654419 223.744934,136.714584 220.841187,135.510742 
	C223.356522,136.149002 226.113586,137.051254 228.969803,138.273895 
z"
  />
  <path
    fill="#FEEFD7"
    opacity="1.000000"
    stroke="none"
    d="
M257.004303,161.637726 
	C255.728195,160.557526 254.469589,159.085587 253.129166,157.297119 
	C256.100861,156.791626 257.169434,158.452209 257.004303,161.637726 
z"
  />
  <path
    fill="#FEEFD7"
    opacity="1.000000"
    stroke="none"
    d="
M159.667175,146.018692 
	C158.621536,147.375748 157.201202,148.713654 155.470261,150.161072 
	C156.537262,148.846909 157.914886,147.423218 159.667175,146.018692 
z"
  />
  <path
    fill="#FEEFD7"
    opacity="1.000000"
    stroke="none"
    d="
M182.437759,134.902603 
	C181.114166,135.557983 179.400452,136.211624 177.325302,136.843201 
	C178.658463,136.181046 180.353043,135.540939 182.437759,134.902603 
z"
  />
  <path
    fill="#FEEFD7"
    opacity="1.000000"
    stroke="none"
    d="
M163.874634,143.102386 
	C163.064133,144.080887 161.870438,145.008804 160.356079,145.991180 
	C161.187454,145.047699 162.339447,144.049744 163.874634,143.102386 
z"
  />
  <path
    fill="#FDEBD3"
    opacity="1.000000"
    stroke="none"
    d="
M153.024384,248.353088 
	C153.989807,248.765320 154.979462,249.527023 156.070343,250.595673 
	C155.130569,250.169250 154.089584,249.435898 153.024384,248.353088 
z"
  />
  <path
    fill="#FDEBD3"
    opacity="1.000000"
    stroke="none"
    d="
M149.131317,244.089539 
	C150.070786,244.600479 150.984207,245.473602 151.962708,246.663055 
	C151.053604,246.136826 150.079453,245.294281 149.131317,244.089539 
z"
  />
  <path
    fill="#FEEFD7"
    opacity="1.000000"
    stroke="none"
    d="
M262.990540,172.678040 
	C262.329895,171.922653 261.696716,170.788986 261.042847,169.323486 
	C261.687439,170.094360 262.352722,171.197067 262.990540,172.678040 
z"
  />
  <path
    fill="#FDEBD3"
    opacity="1.000000"
    stroke="none"
    d="
M164.083313,257.303589 
	C164.987885,257.398285 165.931168,257.858429 167.054749,258.586456 
	C166.197388,258.459259 165.159714,258.064148 164.083313,257.303589 
z"
  />
  <path
    fill="#FEEFD7"
    opacity="1.000000"
    stroke="none"
    d="
M259.963257,166.743042 
	C259.334045,166.263016 258.734100,165.427811 258.117798,164.277985 
	C258.731781,164.771515 259.362183,165.579681 259.963257,166.743042 
z"
  />
  <path
    fill="#FDEBD3"
    opacity="1.000000"
    stroke="none"
    d="
M168.030457,259.528290 
	C168.896683,259.592316 169.838638,259.990234 170.953308,260.653137 
	C170.119415,260.566162 169.112808,260.214172 168.030457,259.528290 
z"
  />
  <path
    fill="#FEEFD7"
    opacity="1.000000"
    stroke="none"
    d="
M232.968216,140.330475 
	C232.340286,140.348740 231.621933,140.053162 230.747711,139.494995 
	C231.353836,139.493805 232.115814,139.755234 232.968216,140.330475 
z"
  />
  <path
    fill="#FEEFD7"
    opacity="1.000000"
    stroke="none"
    d="
M208.784637,132.691360 
	C207.925903,132.933716 206.860657,132.935577 205.419403,132.796844 
	C206.221634,132.587769 207.399887,132.519318 208.784637,132.691360 
z"
  />
  <path
    fill="#FEEFD7"
    opacity="1.000000"
    stroke="none"
    d="
M167.062988,141.178055 
	C166.797852,141.752151 166.189713,142.275497 165.272369,142.800018 
	C165.548782,142.243225 166.134384,141.685272 167.062988,141.178055 
z"
  />
  <path
    fill="#FDEBD3"
    opacity="1.000000"
    stroke="none"
    d="
M206.274536,267.574921 
	C206.770935,267.251343 207.510590,267.121674 208.624847,267.261475 
	C208.999451,267.531006 208.995316,267.971558 208.995316,267.971558 
	C208.169479,267.903961 207.343643,267.836365 206.274536,267.574921 
z"
  />
  <path
    fill="#FEEFD7"
    opacity="1.000000"
    stroke="none"
    d="
M170.937073,139.123932 
	C170.768433,139.510986 170.261383,139.857285 169.439041,140.212967 
	C169.615387,139.842636 170.107025,139.462906 170.937073,139.123932 
z"
  />
  <path
    fill="#FEEFD7"
    opacity="1.000000"
    stroke="none"
    d="
M175.819336,137.045593 
	C175.624298,137.380005 175.117264,137.684738 174.305756,137.966690 
	C174.503311,137.634583 175.005325,137.325256 175.819336,137.045593 
z"
  />
  <path
    fill="#FDEBD3"
    opacity="1.000000"
    stroke="none"
    d="
M137.052094,223.168365 
	C137.377014,223.370667 137.663040,223.883377 137.929642,224.697937 
	C137.611206,224.492767 137.312195,223.985794 137.052094,223.168365 
z"
  />
  <path
    fill="#FEEFD7"
    opacity="1.000000"
    stroke="none"
    d="
M209.209457,267.888733 
	C208.995316,267.971558 208.999451,267.531006 209.001526,267.310852 
	C209.171921,267.056427 209.340225,267.022125 209.758133,267.051880 
	C209.893524,267.414124 209.698822,267.644135 209.209457,267.888733 
z"
  />
  <path
    fill="#FDEBD3"
    opacity="1.000000"
    stroke="none"
    d="
M213.772491,266.285583 
	C214.011444,266.286530 213.983871,266.715118 213.956238,266.929626 
	C213.743423,267.111450 213.558243,267.078735 213.101746,266.966492 
	C212.960800,266.564728 213.195175,266.363983 213.772491,266.285583 
z"
  />
  <path
    fill="#FDEBD3"
    opacity="1.000000"
    stroke="none"
    d="
M194.078827,267.429932 
	C194.160477,267.249146 194.333511,267.207245 194.753967,267.265869 
	C195.001389,267.366425 194.628128,267.665833 194.628128,267.665833 
	C194.628128,267.665833 194.170197,267.568848 194.078827,267.429932 
z"
  />
  <path
    fill="#FDEBD3"
    opacity="1.000000"
    stroke="none"
    d="
M163.065399,256.363892 
	C163.247406,256.265747 163.554245,256.376617 163.960663,256.722382 
	C163.712921,256.958832 163.422943,256.830750 163.065399,256.363892 
z"
  />
  <path
    fill="#FDEBD3"
    opacity="1.000000"
    stroke="none"
    d="
M162.085144,255.598419 
	C162.292847,255.333801 162.532547,255.413574 162.761780,255.882843 
	C162.566315,256.042786 162.354935,255.932938 162.085144,255.598419 
z"
  />
  <path
    fill="#FDEBD3"
    opacity="1.000000"
    stroke="none"
    d="
M160.089752,254.287109 
	C160.284256,254.189728 160.594513,254.324554 161.015411,254.697556 
	C160.819214,254.796936 160.512360,254.658127 160.089752,254.287109 
z"
  />
  <path
    fill="#FDEBD3"
    opacity="1.000000"
    stroke="none"
    d="
M159.078339,253.391556 
	C159.336975,253.146912 159.612701,253.274902 159.876343,253.800980 
	C159.625870,253.992172 159.369614,253.847214 159.078339,253.391556 
z"
  />
  <path
    fill="#FDEBD3"
    opacity="1.000000"
    stroke="none"
    d="
M152.097366,247.211349 
	C152.303345,247.146240 152.589142,247.320679 152.935760,247.747162 
	C152.723465,247.816437 152.450317,247.633667 152.097366,247.211349 
z"
  />
  <path
    fill="#FEEFD7"
    opacity="1.000000"
    stroke="none"
    d="
M260.960876,168.771759 
	C260.678772,168.929901 260.443237,168.756943 260.315186,168.229294 
	C260.599091,168.113342 260.794006,168.302017 260.960876,168.771759 
z"
  />
  <path
    fill="#FEEFD7"
    opacity="1.000000"
    stroke="none"
    d="
M248.796326,151.971344 
	C248.568146,152.051254 248.265320,151.847992 247.849854,151.389954 
	C248.065369,151.319504 248.393524,151.503845 248.796326,151.971344 
z"
  />
  <path
    fill="#FEEFD7"
    opacity="1.000000"
    stroke="none"
    d="
M168.923386,140.184204 
	C168.956940,140.411163 168.733994,140.654694 168.255676,140.918854 
	C168.222504,140.693237 168.444687,140.446991 168.923386,140.184204 
z"
  />
  <path
    fill="#FEEFD7"
    opacity="1.000000"
    stroke="none"
    d="
M173.043365,138.169495 
	C173.058136,138.401520 172.798798,138.640579 172.269379,138.893494 
	C172.255936,138.663757 172.512589,138.420135 173.043365,138.169495 
z"
  />
</svg>
